<?xml version="1.0" encoding="UTF-8" standalone="no"?>
<svg width="19px" height="16px" viewBox="0 0 19 16" version="1.1" xmlns="http://www.w3.org/2000/svg" xmlns:xlink="http://www.w3.org/1999/xlink">
    <!-- Generator: Sketch 44.1 (41455) - http://www.bohemiancoding.com/sketch -->
    <title>Shape</title>
    <desc>Created with Sketch.</desc>
    <defs></defs>
    <g id="Page-1" stroke="none" stroke-width="1" fill="none" fill-rule="evenodd">
        <g id="00a-diad-concept-1" transform="translate(-1242.000000, -2712.000000)" fill-rule="nonzero" fill="#FFFFFF">
            <g id="Content-bottom" transform="translate(-47.000000, 2029.000000)">
                <g id="Footer" transform="translate(0.000000, 650.000000)">
                    <g id="Social" transform="translate(1244.000000, 23.000000)">
                        <path d="M61.8294044,13.8679036 L61.8294044,14.3403193 C61.8294044,19.3744992 57.9809918,25.1468287 50.8910316,25.1468287 C48.7003967,25.1468287 46.6725793,24.5267831 45,23.4343218 C45.3108333,23.4933737 45.6216667,23.4933737 45.9325,23.4933737 C47.7530952,23.4933737 49.3664682,22.8733281 50.7282142,21.8842077 C49.0704364,21.8103928 47.6050793,20.7179314 47.1462301,19.2121063 C47.3534523,19.3154473 47.5606746,19.3154473 47.8271031,19.3154473 C48.1971428,19.3154473 48.5079761,19.2563953 48.8188094,19.1530544 C47.042619,18.7839796 45.7400793,17.2781545 45.7400793,15.4180177 L45.7400793,15.3589657 C46.2581349,15.6246995 46.8353968,15.8313814 47.4570634,15.8313814 C46.4209524,15.1522838 45.7400793,13.9564816 45.7400793,12.6573384 C45.7400793,11.9782408 45.9473016,11.3139062 46.2581349,10.7381495 C48.1379364,13.0264131 50.9946427,14.5322382 54.1769839,14.6798681 C54.1177776,14.4141343 54.0733728,14.1041115 54.0733728,13.7940887 C54.0733728,11.7125069 55.7903569,10 57.9217854,10 C59.0171029,10 60.0088092,10.4724157 60.734087,11.1958023 C61.6221822,11.0334094 62.4510711,10.7233866 63.1763488,10.2657338 C62.8655155,11.1515133 62.2882536,11.8748998 61.4593647,12.3473156 C62.2438489,12.2439746 62.9691266,12.0372928 63.6499996,11.7715589 C63.2355552,12.6721014 62.6138885,13.3511989 61.8294044,13.8679036 Z" id="Shape"></path>
                    </g>
                </g>
            </g>
        </g>
    </g>
</svg>