<?xml version="1.0" encoding="utf-8"?>
<!-- Generator: Adobe Illustrator 20.1.0, SVG Export Plug-In . SVG Version: 6.00 Build 0)  -->
<!DOCTYPE svg PUBLIC "-//W3C//DTD SVG 1.1//EN" "http://www.w3.org/Graphics/SVG/1.1/DTD/svg11.dtd">
<svg version="1.1" id="Layer_1" xmlns="http://www.w3.org/2000/svg" xmlns:xlink="http://www.w3.org/1999/xlink" x="0px" y="0px"
	 width="267px" height="342px" viewBox="0 0 267 342" style="enable-background:new 0 0 267 342;" xml:space="preserve">
<style type="text/css">
	.st0{fill:#4A575C;}
</style>
<title>Logo</title>
<desc>Created with Sketch.</desc>
<g id="Page-1">
	<g id="_x30_0a-diad-concept-1" transform="translate(-42.000000, -2679.000000)">
		<g id="Content-bottom" transform="translate(-47.000000, 2029.000000)">
			<g id="Footer" transform="translate(0.000000, 650.000000)">
				
					<g id="Logo" transform="translate(199.155879, 109.641364) rotate(-30.000000) translate(-199.155879, -109.641364) translate(61.655879, -75.358636)">
					<g id="Group-3" transform="translate(0.000000, 0.601297)">
					</g>
					<path id="Fill-1" class="st0" d="M110.6,381h-1C52.3,381,5.6,335.8,5.6,280.3c0-47.3,31.9-79.2,65.6-112.9
						c13.8-13.8,27.9-27.9,39.7-43.3c11.3,14.6,24.6,28.1,37.6,41.3c33.9,34.6,66,67.3,66,114.9C214.5,335.8,167.9,381,110.6,381
						 M114.1,67.4l-3.5-22.9l-3.8,22.9C87.5,137.6-25.1,177.9-25.1,280.3c0,72.6,60.3,131.4,134.6,131.4h1
						c74.4,0,134.6-58.8,134.6-131.4C245.2,179.1,135.3,136.1,114.1,67.4"/>
					<polygon id="Fill-20" class="st0" points="170.8,270.2 121.6,270.2 121.6,270.1 121.6,270.1 121.6,269 121.6,213.5 
						110.9,197.5 100.2,213 100.2,291.6 170.5,291.7 183.2,280.9 					"/>
				</g>
			</g>
		</g>
	</g>
</g>
</svg>
