<?xml version="1.0" encoding="UTF-8" standalone="no"?>
<svg width="155px" height="67px" viewBox="0 0 155 67" version="1.1" xmlns="http://www.w3.org/2000/svg" xmlns:xlink="http://www.w3.org/1999/xlink">
    <!-- Generator: Sketch 44.1 (41455) - http://www.bohemiancoding.com/sketch -->
    <title>Logo</title>
    <desc>Created with Sketch.</desc>
    <defs></defs>
    <g id="Page-1" stroke="none" stroke-width="1" fill="none" fill-rule="evenodd">
        <g id="00a-diad-concept-1" transform="translate(-133.000000, -16.000000)">
            <g id="Header" transform="translate(133.000000, 16.000000)">
                <g id="Logo">
                    <g id="Group-3" transform="translate(0.000000, 0.109243)"></g>
                    <path d="M24.7066066,61.3290493 L24.5222982,61.3290493 C14.0830089,61.3290493 5.59007107,53.1275419 5.59007107,43.0466944 C5.59007107,34.449671 11.3935228,28.6623249 17.5376599,22.5352633 C20.0577868,20.0220757 22.6215812,17.4656622 24.7713211,14.6697384 C26.8354962,17.3143718 29.2468477,19.7662575 31.6178756,22.1772751 C37.7997792,28.4634862 43.6390305,34.4009437 43.6390305,43.0466944 C43.6390305,53.1275419 35.1458959,61.3290493 24.7066066,61.3290493 M25.3498173,4.36490264 L24.7066066,0.19636305 L24.0067462,4.35999062 C20.510198,17.1145507 3.93401015e-05,24.4338587 3.93401015e-05,43.0466944 C3.93401015e-05,56.2276182 10.9790749,66.9128411 24.5222982,66.9128411 L24.7066066,66.9128411 C38.2498299,66.9128411 49.2288655,56.2276182 49.2288655,43.0466944 C49.2288655,24.6605977 29.2082944,16.8463543 25.3498173,4.36490264" id="Fill-1" fill="#FFFFFF"></path>
                    <path d="M104.636389,31.3265082 C104.636389,33.7996138 103.563584,35.8009686 101.063914,35.8009686 C98.5630641,35.8009686 97.4827849,33.7996138 97.4827849,31.3265082 L97.4827849,22.8735053 L92.9205133,22.8735053 L92.9205133,31.3265082 C92.9205133,36.2133821 96.0960463,40.1722765 101.038933,40.1722765 C105.976116,40.1722765 109.200628,36.2133821 109.200628,31.3265082 L109.200628,22.8642707 L104.627537,22.8642707 L104.636389,31.3265082 Z" id="Fill-4" fill="#FFFFFF"></path>
                    <polygon id="Fill-6" fill="#FFFFFF" points="150.42691 39.7366979 154.974822 39.7366979 154.974822 17.7092199 150.42691 17.7092199"></polygon>
                    <path d="M82.7042824,25.8473032 C82.6549105,25.9479015 82.6531402,26.0056669 82.4780768,26.0038985 C82.3354689,25.9985935 82.318356,25.8473032 82.318356,25.8473032 L81.8325057,22.8985173 L77.7572646,22.8985173 L77.7572646,39.723966 L82.3246504,39.723966 L82.3246504,30.616878 C82.3246504,29.8710364 84.3516491,26.3047109 88.2773978,27.2195261 C90.2609258,27.6861683 91.1030006,28.5202299 91.1030006,28.5202299 L91.1030006,23.3956141 C90.3681275,23.0156199 89.8641808,22.8319103 89.2022836,22.6806199 C85.2820425,21.7852563 82.8079435,25.6382475 82.7042824,25.8473032" id="Fill-8" fill="#FFFFFF"></path>
                    <path d="M119.82871,35.9612774 C117.30937,35.9612774 115.271946,33.9438111 115.271946,31.4528258 C115.271946,28.9651806 117.30937,26.9439812 119.82871,26.9439812 C122.34687,26.9439812 124.387244,28.9651806 124.387244,31.4528258 C124.387244,33.9438111 122.34687,35.9612774 119.82871,35.9612774 M119.823202,22.5455589 C114.851597,22.5455589 110.820614,26.5335326 110.820614,31.4528258 L110.820614,45.2646499 L115.399801,45.2646499 L115.399801,39.2106792 L115.402555,36.9426997 C115.402555,36.9426997 115.40885,36.7627232 115.574865,36.7591865 C115.7218,36.7591865 115.754256,36.8564446 115.791235,36.9426997 C116.137232,37.7968023 118.043653,41.0460076 122.27114,40.0262716 C126.055068,38.9709724 128.828742,35.5341279 128.828742,31.4528258 C128.828742,26.5335326 124.798348,22.5455589 119.823202,22.5455589" id="Fill-9" fill="#FFFFFF"></path>
                    <path d="M139.573114,35.9612774 C137.054167,35.9612774 135.012809,33.9438111 135.012809,31.4528258 C135.012809,28.9651806 137.054167,26.9439812 139.573114,26.9439812 C142.088716,26.9439812 144.130271,28.9651806 144.130271,31.4528258 C144.130271,33.9438111 142.088716,35.9612774 139.573114,35.9612774 M139.575277,22.5455589 C134.601115,22.5455589 130.568754,26.5335326 130.568754,31.4528258 C130.568754,35.5341279 133.344002,38.9709724 137.129897,40.0262716 C141.358367,41.0460076 143.262822,37.7968023 143.607244,36.9426997 C143.645011,36.8564446 143.677663,36.7591865 143.825385,36.7591865 C143.9914,36.7627232 143.996515,36.9426997 143.996515,36.9426997 L144.000449,39.7293889 L148.58062,39.7293889 L148.58062,31.4528258 C148.58062,26.5335326 144.550423,22.5455589 139.575277,22.5455589" id="Fill-10" fill="#FFFFFF"></path>
                    <path d="M64.7359467,35.9269326 L62.8497855,35.8782053 L62.8497855,21.5132874 L64.6873617,21.5132874 C68.8961624,21.5132874 71.0960609,22.0970323 71.0960609,28.6966305 C71.0960609,35.5775894 68.6056358,35.9269326 64.7359467,35.9269326 M63.8252234,17.6984135 L58.2497475,17.6984135 L58.2497475,39.6952405 L63.4465749,39.6952405 C70.2726726,39.6952405 75.6978693,38.3766569 75.6978693,28.6966305 C75.6978693,18.925044 70.5765749,17.6984135 63.8252234,17.6984135" id="Fill-11" fill="#FFFFFF"></path>
                    <polygon id="Fill-12" fill="#FFFFFF" points="59.4029632 58.6880704 60.5040926 58.6880704 60.5040926 49.4194751 59.4029632 49.4194751"></polygon>
                    <polygon id="Fill-13" fill="#FFFFFF" points="64.5140685 49.4194358 65.9031675 49.4194358 71.2768287 57.117166 71.3029898 57.117166 71.3029898 49.4194358 72.4039226 49.4194358 72.4039226 58.6880311 71.0148236 58.6880311 65.6411624 50.9903009 65.615198 50.9903009 65.615198 58.6880311 64.5140685 58.6880311"></polygon>
                    <path d="M85.2736631,50.8333716 L85.2475019,50.8333716 L83.3208204,55.3891751 L87.1084854,55.3891751 L85.2736631,50.8333716 Z M84.7758141,49.4194947 L85.8110489,49.4194947 L89.7558775,58.68809 L88.4716199,58.68809 L87.5280476,56.41009 L82.8886694,56.41009 L81.9317214,58.68809 L80.6866072,58.68809 L84.7758141,49.4194947 Z" id="Fill-14" fill="#FFFFFF"></path>
                    <path d="M98.9693096,57.6668411 L101.066137,57.6668411 C101.598999,57.6668411 102.092717,57.5972868 102.547095,57.4575889 C103.001277,57.3180874 103.394678,57.1019584 103.726708,56.8093982 C104.058542,56.5170346 104.320547,56.1441138 104.513117,55.6900463 C104.705096,55.2363718 104.801086,54.6909408 104.801086,54.0537531 C104.801086,53.4167619 104.705096,52.8713308 104.513117,52.4172633 C104.320547,51.9637853 104.058542,51.5904716 103.726708,51.2981079 C103.394678,51.0057443 103.001277,50.7898117 102.547095,50.6499173 C102.092717,50.5104158 101.598999,50.4406651 101.066137,50.4406651 L98.9693096,50.4406651 L98.9693096,57.6668411 Z M97.8681802,49.4193572 L101.432984,49.4193572 C101.738853,49.4193572 102.062425,49.4543308 102.40311,49.524278 C102.743796,49.5940287 103.082317,49.705237 103.418478,49.8580991 C103.755033,50.0107648 104.078212,50.209407 104.388605,50.4536328 C104.698605,50.6980551 104.971822,50.9925801 105.207666,51.3372076 C105.44351,51.6822282 105.631359,52.0793161 105.771213,52.528668 C105.910674,52.9782164 105.980896,53.4865126 105.980896,54.0537531 C105.980896,54.62119 105.910674,55.1294862 105.771213,55.5788381 C105.631359,56.0283865 105.44351,56.4254745 105.207666,56.7702985 C104.971822,57.1149261 104.698605,57.409451 104.388605,57.6538733 C104.078212,57.8982956 103.755033,58.0967413 103.418478,58.249407 C103.082317,58.4022692 102.743796,58.5136739 102.40311,58.5832282 C102.062425,58.6533718 101.738853,58.6879525 101.432984,58.6879525 L97.8681802,58.6879525 L97.8681802,49.4193572 Z" id="Fill-15" fill="#FFFFFF"></path>
                    <path d="M112.966164,50.8333716 L112.940003,50.8333716 L111.013321,55.3891751 L114.800986,55.3891751 L112.966164,50.8333716 Z M112.468315,49.4194947 L113.503549,49.4194947 L117.448378,58.68809 L116.164121,58.68809 L115.220548,56.41009 L110.58117,56.41009 L109.624222,58.68809 L108.379108,58.68809 L112.468315,49.4194947 Z" id="Fill-16" fill="#FFFFFF"></path>
                    <polygon id="Fill-17" fill="#FFFFFF" points="121.602929 54.6952633 118.142967 49.4193572 119.545245 49.4193572 122.153494 53.6087238 124.840029 49.4193572 126.163824 49.4193572 122.704058 54.6952633 122.704058 58.6879525 121.602929 58.6879525"></polygon>
                    <path d="M15.0403699,41.2968745 L12.2120133,41.2968745 C11.904177,41.2968745 11.6543674,41.5462088 11.6543674,41.8538979 L11.6543674,44.6790974 C11.6543674,44.98659 11.904177,45.2359243 12.2120133,45.2359243 L15.0403699,45.2359243 C15.3482062,45.2359243 15.5980159,44.98659 15.5980159,44.6790974 L15.5980159,41.8538979 C15.5980159,41.5462088 15.3482062,41.2968745 15.0403699,41.2968745" id="Fill-18" fill="#FFFFFF"></path>
                    <path d="M26.2031237,51.9302264 L23.3747671,51.9302264 C23.0669308,51.9302264 22.8173179,52.1795607 22.8173179,52.4872499 L22.8173179,55.3124493 C22.8173179,55.6199419 23.0669308,55.8692762 23.3747671,55.8692762 L26.2031237,55.8692762 C26.5111567,55.8692762 26.7607697,55.6199419 26.7607697,55.3124493 L26.7607697,52.4872499 C26.7607697,52.1795607 26.5111567,51.9302264 26.2031237,51.9302264" id="Fill-19" fill="#FFFFFF"></path>
                    <polygon id="Fill-20" fill="#FFFFFF" points="35.6673883 41.2083205 26.7112208 41.2083205 26.7112208 41.1941739 26.710434 41.1941739 26.7112208 40.9965141 26.7112208 30.9121299 24.7593617 28.0030331 22.8082893 30.8050478 22.8082893 45.0917663 35.6256878 45.1131827 37.9355419 43.1428718"></polygon>
                </g>
            </g>
        </g>
    </g>
</svg>